<svg width="55" height="71" viewBox="0 0 55 71" fill="none" xmlns="http://www.w3.org/2000/svg">
<path d="M16.1451 0.420898C16.1309 1.34307 16.1266 2.26444 16.1196 3.18751L16.1145 3.57545L15.7266 3.59076C14.8061 3.62098 13.8814 3.63131 12.9549 3.6367C12.9046 13.0088 12.9324 22.3769 12.9293 31.7469V32.1501L12.5261 32.1552C11.7482 32.1633 10.9655 32.1707 10.1831 32.191L9.75949 32.2012L9.76459 31.7775C9.7806 30.8617 9.77378 29.9468 9.75438 29.0364C6.57532 29.0099 3.39322 28.9935 0.214169 29.0466C0.218253 32.2134 0.208044 35.3792 0.214169 38.546C1.13571 38.5637 2.06828 38.6068 3.00121 38.5409L3.51166 38.5052L3.43508 39.0105C3.30156 39.925 3.39077 40.8504 3.39425 41.7669C4.27385 41.813 5.15942 41.8216 6.04856 41.8231H6.42628L6.45691 42.2008C6.60443 44.1585 6.5314 46.1243 6.5641 48.0913C7.47767 48.1286 8.39726 48.1435 9.3154 48.1526L9.71355 48.1577L9.71865 48.5558C9.73335 50.5198 9.7289 52.4828 9.75949 54.4463C10.6816 54.461 11.6102 54.5078 12.5414 54.4514L13.011 54.4259L12.9753 54.8904C12.8203 56.8536 12.9547 58.8328 12.9395 60.8014C13.8376 60.8191 14.7347 60.8318 15.6347 60.8371H16.0379L16.043 61.2404C16.0826 64.2727 16.0631 67.3075 16.1043 70.3416C21.3394 70.4171 26.5786 70.4243 31.8158 70.4182C37.1775 70.41 42.5382 70.4549 47.8999 70.3263C47.8141 67.3015 48.0852 64.2783 47.9611 61.2557L47.9458 60.8218L48.3797 60.832C49.2796 60.8574 50.1809 60.8396 51.0748 60.8116C51.1081 57.8032 51.1118 54.7905 51.1157 51.7818V51.4092L51.4832 51.3735C52.397 51.2861 53.3186 51.2794 54.2447 51.2867C54.2672 47.917 54.2043 44.5495 54.306 41.1799V41.1697V41.1595C54.1941 37.112 54.2733 33.0605 54.2243 29.0109C53.3161 29.018 52.4101 29.0085 51.5087 28.9956L51.1157 28.9905L51.1055 28.5974C51.0873 27.7043 51.0759 26.806 51.0902 25.9074C50.1583 25.8802 49.2321 25.9094 48.3083 25.8563L47.9509 25.8359L47.9254 25.4786C47.8599 24.55 47.8921 23.6121 47.8795 22.6712C45.904 22.6635 43.9302 22.6796 41.9583 22.6508L41.5602 22.6456L41.5551 22.2475C41.5398 21.3558 41.5291 20.4638 41.5398 19.5677C38.5093 19.4072 35.4706 19.5111 32.4385 19.4758L32.0506 19.4707L32.0353 19.0879C31.9938 18.1695 31.9771 17.2487 31.9791 16.3212C30.0077 16.3117 28.037 16.3275 26.0682 16.2855L25.6751 16.2753L25.67 15.8823C25.631 11.8027 25.6533 7.72184 25.6394 3.6418C25.1136 3.6367 24.5879 3.63262 24.0621 3.63159C23.6701 3.63084 23.2797 3.63264 22.8881 3.6367L22.4695 3.6418L22.4746 3.22324C22.4887 2.28696 22.4871 1.35022 22.3981 0.420898C20.3134 0.427024 18.2298 0.433149 16.1451 0.420898H16.1451Z" fill="white"/>
<path d="M16.1432 0.419922C18.2279 0.432173 20.3126 0.428089 22.3972 0.421964C22.4973 1.46735 22.4932 2.51887 22.4728 3.5663C20.3534 3.58672 18.2361 3.56018 16.1167 3.58672C16.1249 2.53112 16.1269 1.47552 16.1432 0.419922V0.419922Z" fill="#1C1C1C"/>
<path d="M12.954 3.63567C14.0076 3.62955 15.0632 3.63159 16.1167 3.58667C16.1188 15.2432 16.1371 26.8997 16.1249 38.5562C15.0632 38.5807 14.0014 38.5807 12.9397 38.5582C12.9193 37.5149 12.9193 36.4695 12.9336 35.4241C11.878 35.3833 10.8224 35.3894 9.76678 35.3935C9.73207 34.3277 9.72391 33.2598 9.76474 32.194C10.8183 32.1552 11.8739 32.1675 12.9295 32.1511C12.9336 22.6467 12.903 13.1422 12.954 3.63567V3.63567Z" fill="#1C1C1C"/>
<path d="M22.4849 3.63976C23.5365 3.62547 24.588 3.63159 25.6395 3.6418C25.6538 7.85603 25.6252 12.0723 25.6701 16.2865C27.7732 16.3417 29.8762 16.311 31.9792 16.3212C31.9772 17.3728 31.9792 18.4243 32.0405 19.4758C35.2052 19.5268 38.3761 19.4002 41.5388 19.5677C41.5266 20.5947 41.5327 21.6217 41.5552 22.6487C43.6623 22.6875 45.7714 22.663 47.8806 22.6712C47.8949 23.7268 47.8275 24.7885 47.9398 25.84C48.9872 25.9319 50.0387 25.8768 51.0882 25.9074C51.0719 26.9364 51.08 27.9655 51.1066 28.9946C52.1438 29.0129 53.1831 29.0211 54.2244 29.0129C54.2734 33.0659 54.1938 37.1188 54.3061 41.1697C54.204 44.5427 54.2652 47.9157 54.2428 51.2887C53.1974 51.2806 52.152 51.2765 51.1148 51.4051C51.1107 54.5392 51.1086 57.6754 51.0739 60.8095C50.0326 60.8422 48.9893 60.8769 47.95 60.8259C47.8316 57.6366 47.8867 54.4433 47.9173 51.252C48.9648 51.2622 50.0142 51.2622 51.0637 51.254C51.0658 43.8424 51.0719 36.4328 51.076 29.0211C50.0285 29.0068 48.9811 29.0088 47.9337 29.0211C47.8745 27.99 47.9418 26.9528 47.8581 25.9237C46.8189 25.7236 45.7571 25.8461 44.7077 25.842C44.6852 29.0211 44.7444 32.2001 44.6811 35.3812C43.6439 35.3833 42.6046 35.3833 41.5674 35.3853C41.4959 31.1445 41.5695 26.9038 41.5429 22.663C39.4174 22.6508 37.2919 22.6569 35.1685 22.663C35.1685 25.84 35.2011 29.017 35.1644 32.192C34.1108 32.2144 33.0593 32.2144 32.0078 32.194C31.9874 27.9573 31.9833 23.7186 32.0343 19.4819C29.9068 19.4717 27.7813 19.4697 25.6538 19.4942C25.6313 23.7268 25.6701 27.9594 25.6538 32.192C24.59 32.2226 23.5242 32.2246 22.4604 32.194C22.4604 22.6773 22.4666 13.1585 22.4849 3.63976V3.63976Z" fill="#1C1C1C"/>
<path d="M0.215219 29.0458C3.39427 28.9927 6.57536 29.009 9.75441 29.0355C9.77687 30.0891 9.79524 31.1406 9.76461 32.1942C7.65546 32.2432 5.5463 32.2064 3.43918 32.2228C3.36159 34.3217 3.55148 36.4268 3.40856 38.5237C2.34683 38.6462 1.27694 38.5645 0.213175 38.5441C0.20705 35.3773 0.219302 32.2125 0.215219 29.0458V29.0458Z" fill="#1C1C1C"/>
<path d="M3.49427 38.5949C4.51516 38.4377 5.55238 38.4969 6.58144 38.5255C6.6039 39.5852 6.60594 40.6469 6.59573 41.7086C7.65746 41.7148 8.71714 41.7127 9.77886 41.727C9.80337 43.8402 9.77886 45.9535 9.79111 48.0667C10.8385 48.0606 11.888 48.0626 12.9375 48.0769C12.9232 50.1963 13.0743 52.332 12.8579 54.4412C11.8247 54.5351 10.7895 54.4616 9.75844 54.4452C9.72578 52.3504 9.72986 50.2555 9.71148 48.1606C8.66201 48.1545 7.61254 48.1361 6.56306 48.0933C6.52835 46.0066 6.63044 43.9158 6.44056 41.8352C5.42579 41.8393 4.40899 41.8209 3.39626 41.7678C3.39218 40.7102 3.25334 39.6362 3.49427 38.5949V38.5949Z" fill="#1C1C1C"/>
<path d="M13.0027 54.4556C14.0399 54.374 15.0833 54.423 16.1246 54.4291C16.1531 56.5382 16.1266 58.6474 16.1327 60.7545C17.1904 60.7504 18.2521 60.7504 19.3118 60.7872C19.3322 62.8963 19.2934 65.0075 19.324 67.1167C27.779 67.1371 36.234 67.133 44.689 67.1289C44.7217 65.0177 44.6809 62.9065 44.7033 60.7933C45.7855 60.779 46.8676 60.7647 47.9498 60.826C48.1213 63.9907 47.8109 67.1575 47.9008 70.3264C42.539 70.455 37.1773 70.408 31.8156 70.4162C26.5785 70.4223 21.3413 70.4162 16.1062 70.3407C16.0633 67.1739 16.0858 64.0071 16.0388 60.8423C15.0057 60.8403 13.9725 60.8239 12.9394 60.8035C12.9557 58.6882 12.7862 56.5587 13.0027 54.4556V54.4556Z" fill="#1C1C1C"/>
</svg>
